<svg width="40" height="40" viewBox="0 0 40 40" fill="none" xmlns="http://www.w3.org/2000/svg">
<rect width="40" height="40" rx="20" fill="#FF8BFA" fill-opacity="0.14"/>
<path d="M28.5714 21.4286H21.4286V28.5714C21.4286 28.9503 21.2781 29.3137 21.0102 29.5816C20.7422 29.8495 20.3789 30 20 30C19.6211 30 19.2578 29.8495 18.9898 29.5816C18.7219 29.3137 18.5714 28.9503 18.5714 28.5714V21.4286H11.4286C11.0497 21.4286 10.6863 21.2781 10.4184 21.0102C10.1505 20.7422 10 20.3789 10 20C10 19.6211 10.1505 19.2578 10.4184 18.9898C10.6863 18.7219 11.0497 18.5714 11.4286 18.5714H18.5714V11.4286C18.5714 11.0497 18.7219 10.6863 18.9898 10.4184C19.2578 10.1505 19.6211 10 20 10C20.3789 10 20.7422 10.1505 21.0102 10.4184C21.2781 10.6863 21.4286 11.0497 21.4286 11.4286V18.5714H28.5714C28.9503 18.5714 29.3137 18.7219 29.5816 18.9898C29.8495 19.2578 30 19.6211 30 20C30 20.3789 29.8495 20.7422 29.5816 21.0102C29.3137 21.2781 28.9503 21.4286 28.5714 21.4286Z" fill="#FF8BFA"/>
</svg>
