<svg width="24" height="25" viewBox="0 0 24 25" fill="none" xmlns="http://www.w3.org/2000/svg">
<rect y="0.5" width="24" height="24" rx="12" fill="#38283E"/>
<g clip-path="url(#clip0_57_870)">
<path d="M8.25025 8.31757C8.17054 8.31955 8.09147 8.33741 8.01766 8.37012C7.94386 8.40283 7.87682 8.44972 7.82046 8.50804C7.7641 8.56636 7.71957 8.63495 7.68946 8.70977C7.65936 8.7846 7.64429 8.86415 7.64514 8.94378C7.64599 9.02341 7.66275 9.10151 7.69443 9.1735C7.7261 9.24549 7.77206 9.30993 7.82961 9.36302C7.88717 9.41612 7.95515 9.45681 8.02958 9.48272C8.10401 9.50863 8.18338 9.51922 8.26306 9.51389L14.0212 9.25225L6.71105 16.5624C6.59677 16.6767 6.531 16.8301 6.5282 16.9889C6.52541 17.1478 6.58582 17.299 6.69614 17.4093C6.80647 17.5196 6.95767 17.58 7.11649 17.5772C7.27531 17.5744 7.42874 17.5087 7.54302 17.3944L14.8543 10.0831L14.5927 15.8435C14.5873 15.9232 14.5979 16.0025 14.6238 16.077C14.6497 16.1514 14.6904 16.2194 14.7435 16.2769C14.7966 16.3345 14.8611 16.3804 14.933 16.4121C15.005 16.4438 15.0831 16.4606 15.1628 16.4614C15.2424 16.4623 15.3219 16.4472 15.3968 16.4171C15.4716 16.387 15.5402 16.3424 15.5985 16.2861C15.6568 16.2297 15.7037 16.1627 15.7364 16.0889C15.7691 16.0151 15.787 15.936 15.789 15.8563L16.1095 8.80235C16.1175 8.62722 16.0678 8.45636 15.968 8.31606C15.9215 8.24256 15.859 8.18082 15.7849 8.13529C15.6457 8.03783 15.477 7.98931 15.3042 7.997L8.25025 8.31757Z" fill="#FF8BFA"/>
</g>
<defs>
<clipPath id="clip0_57_870">
<rect width="16" height="16" fill="white" transform="translate(12 1.5) rotate(45)"/>
</clipPath>
</defs>
</svg>
