<svg width="24" height="25" viewBox="0 0 24 25" fill="none" xmlns="http://www.w3.org/2000/svg">
<rect y="0.5" width="24" height="24" rx="12" fill="#313131"/>
<path d="M6.16932 11.4723C6.11435 11.53 6.07107 11.5986 6.04201 11.6739C6.01295 11.7492 5.9987 11.8298 6.00009 11.9109C6.00148 11.9919 6.01849 12.0719 6.05011 12.1461C6.08173 12.2203 6.12733 12.2872 6.18424 12.3429C6.24115 12.3986 6.30822 12.442 6.38153 12.4705C6.45483 12.499 6.53289 12.5121 6.61113 12.5089C6.68937 12.5058 6.76622 12.4865 6.83716 12.4522C6.90811 12.4179 6.97173 12.3692 7.0243 12.3091L10.9109 8.05249V18.3906C10.9109 18.5522 10.9729 18.7072 11.0832 18.8215C11.1936 18.9358 11.3432 19 11.4992 19C11.6552 19 11.8049 18.9358 11.9152 18.8215C12.0255 18.7072 12.0875 18.5522 12.0875 18.3906V8.05086L15.9757 12.3091C16.0283 12.3692 16.0919 12.4179 16.1628 12.4522C16.2338 12.4865 16.3106 12.5058 16.3889 12.5089C16.4671 12.5121 16.5452 12.499 16.6185 12.4705C16.6918 12.442 16.7589 12.3986 16.8158 12.3429C16.8727 12.2872 16.9183 12.2203 16.9499 12.1461C16.9815 12.0719 16.9985 11.9919 16.9999 11.9109C17.0013 11.8298 16.987 11.7492 16.958 11.6739C16.9289 11.5986 16.8856 11.53 16.8307 11.4723L12.0695 6.25769C11.9513 6.12822 11.7953 6.04257 11.6255 6.01395C11.5407 5.99482 11.4528 5.99537 11.3682 6.01557C11.2009 6.04509 11.0473 6.13005 10.9305 6.25769L6.16932 11.4723Z" fill="white"/>
</svg>
