<svg width="1434" height="476" viewBox="0 0 1434 476" fill="none" xmlns="http://www.w3.org/2000/svg">
<path d="M0 74.1055C0 78.5238 3.58172 82.1055 8 82.1055C12.4183 82.1055 16 78.5238 16 74.1055C16 69.6873 12.4183 66.1055 8 66.1055C3.58172 66.1055 0 69.6873 0 74.1055ZM231.171 17.5591L232.356 16.6403L231.171 17.5591ZM1243.08 250.25L1241.77 249.521L1241.7 249.654L1241.65 249.8L1243.08 250.25ZM1418 226.731C1418 231.149 1421.58 234.731 1426 234.731C1430.42 234.731 1434 231.149 1434 226.731C1434 222.313 1430.42 218.731 1426 218.731C1421.58 218.731 1418 222.313 1418 226.731ZM8.80007 75.3744C38.6332 56.5626 85.5543 31.1793 129.346 16.1505C151.25 8.63327 172.273 3.74126 189.938 3.50867C207.621 3.27586 221.638 7.70612 229.985 18.4779L232.356 16.6403C223.176 4.79346 208.006 0.270528 189.899 0.508933C171.774 0.747564 150.406 5.75118 128.372 13.313C84.2874 28.4423 37.1507 53.9508 7.19993 72.8367L8.80007 75.3744ZM229.985 18.4779C235.226 25.2418 239.143 37.1474 242.261 53.0754C245.365 68.9368 247.635 88.5308 249.732 110.466C253.922 154.284 257.417 207.39 265.547 258.119C273.675 308.831 286.467 357.417 309.38 392.192C320.85 409.6 334.885 423.593 352.181 432.639C369.486 441.69 389.965 445.74 414.233 443.401L413.945 440.415C390.191 442.704 370.306 438.733 353.571 429.98C336.826 421.222 323.144 407.63 311.885 390.541C289.338 356.322 276.623 308.266 268.509 257.644C260.399 207.04 256.92 154.121 252.718 110.18C250.62 88.2351 248.34 68.5155 245.205 52.4991C242.083 36.5494 238.07 24.013 232.356 16.6403L229.985 18.4779ZM414.233 443.401C462.853 438.715 495.915 410.943 521 372.403C546.046 333.924 563.251 284.539 580.144 236.36C597.074 188.076 613.681 141.034 637.511 106.817C661.271 72.7028 692.087 51.5024 737.534 54.5849L737.737 51.5918C690.961 48.4192 659.233 70.3793 635.05 105.103C610.937 139.724 594.203 187.197 577.313 235.367C560.386 283.642 543.295 332.651 518.486 370.766C493.718 408.82 461.37 435.844 413.945 440.415L414.233 443.401ZM737.534 54.5849C783.424 57.6974 814.645 70.0703 836.395 88.5716C858.15 107.077 870.595 131.853 878.669 160.088C886.751 188.355 890.415 219.934 894.714 252.013C899.004 284.035 903.924 316.518 914.555 346.333L917.381 345.325C906.868 315.841 901.979 283.646 897.687 251.615C893.403 219.642 889.711 187.794 881.553 159.264C873.386 130.702 860.705 105.312 838.339 86.2865C815.967 67.257 784.071 54.7344 737.737 51.5918L737.534 54.5849ZM914.555 346.333C925.201 376.185 944.171 407.091 968.386 431.18C992.594 455.262 1022.16 472.64 1053.99 475.179C1085.9 477.724 1119.81 465.346 1152.58 430.456C1185.32 395.604 1216.96 338.256 1244.51 250.701L1241.65 249.8C1214.17 337.138 1182.7 394.01 1150.39 428.402C1118.12 462.756 1085.06 474.648 1054.23 472.189C1023.33 469.724 994.397 452.824 970.502 429.054C946.615 405.291 927.881 374.771 917.381 345.325L914.555 346.333ZM1244.39 250.98C1256.17 229.826 1279.34 203.358 1310.47 192.518C1341.45 181.734 1380.67 186.298 1424.97 227.825L1427.03 225.637C1382.06 183.495 1341.71 178.468 1309.49 189.685C1277.43 200.847 1253.77 227.973 1241.77 249.521L1244.39 250.98Z" fill="#D5F12E"/>
</svg>
